<svg width="512" height="512" viewBox="0 0 512 512" fill="none" xmlns="http://www.w3.org/2000/svg">
  <!-- Guitar body outline -->
  <path d="M180 280 C120 280 80 340 80 400 C80 460 120 500 180 500 C220 500 256 480 256 480 C256 480 292 500 332 500 C392 500 432 460 432 400 C432 340 392 280 332 280 C300 280 270 300 256 320 C242 300 212 280 180 280 Z" stroke="black" stroke-width="16" fill="none"/>
  <!-- Guitar neck -->
  <path d="M256 320 L256 120 C256 100 270 80 300 80 C330 80 340 100 340 120 L340 320" stroke="black" stroke-width="16" fill="none"/>
  <!-- Guitar head -->
  <rect x="270" y="20" width="60" height="60" rx="5" stroke="black" stroke-width="16" fill="none"/>
  <!-- Sound hole -->
  <circle cx="256" cy="380" r="35" stroke="black" stroke-width="12" fill="none"/>
  <!-- Bridge -->
  <rect x="206" y="440" width="100" height="20" rx="3" stroke="black" stroke-width="12" fill="none"/>
  <!-- Strings -->
  <line x1="220" y1="80" x2="220" y2="460" stroke="black" stroke-width="3"/>
  <line x1="240" y1="80" x2="240" y2="460" stroke="black" stroke-width="3"/>
  <line x1="260" y1="80" x2="260" y2="460" stroke="black" stroke-width="3"/>
  <line x1="280" y1="80" x2="280" y2="460" stroke="black" stroke-width="3"/>
  <line x1="300" y1="80" x2="300" y2="460" stroke="black" stroke-width="3"/>
  <line x1="320" y1="80" x2="320" y2="460" stroke="black" stroke-width="3"/>
  <!-- Tuning pegs -->
  <circle cx="265" cy="35" r="8" stroke="black" stroke-width="4" fill="none"/>
  <circle cx="275" cy="65" r="8" stroke="black" stroke-width="4" fill="none"/>
  <circle cx="305" cy="35" r="8" stroke="black" stroke-width="4" fill="none"/>
  <circle cx="315" cy="65" r="8" stroke="black" stroke-width="4" fill="none"/>
</svg>
