<svg xmlns="http://www.w3.org/2000/svg" width="32" height="32" viewBox="0 0 32 32">
  <!-- Body - Red Stratocaster shape -->
  <path fill="#D00" d="M6 14c0-2 1-4 3-5v-1h14v1c2 1 3 3 3 5v8c0 3-2 5-5 5h-1l-2 3h-2l-2-3h-4l-2 3h-2l-2-3h-1c-3 0-5-2-5-5v-8z"/>
  <!-- Body contour -->
  <path fill="#C00" d="M8 15c0-1.5 .5-3 2-3.5v-1h12v1c1.5 .5 2 2 2 3.5v7c0 2-1 3-3 3h-1l-1 2h-2l-1-2h-4l-1 2h-2l-1-2h-1c-2 0-3-1-3-3v-7z"/>
  <!-- Neck -->
  <rect x="14" y="2" width="4" height="12" fill="#630"/>
  <!-- Headstock -->
  <path fill="#630" d="M14 2h4v3c0 1-1 1-2 1s-2 0-2-1z"/>
  <!-- Pickguard -->
  <path fill="#EEE" d="M9 15c0-1 .5-2 1.5-2h11c1 0 1.5 1 1.5 2v5c0 1-.5 2-1.5 2H10.5c-1 0-1.5-1-1.5-2v-5z"/>
  <!-- Pickups -->
  <rect x="10" y="12" width="12" height="2" rx="1" fill="#333"/>
  <rect x="11" y="14" width="10" height="2" rx="1" fill="#333"/>
  <!-- Bridge -->
  <rect x="11" y="19" width="10" height="2" fill="#888"/>
  <!-- Strings -->
  <line x1="12" y1="5" x2="12" y2="21" stroke="#CCC" stroke-width="0.3"/>
  <line x1="14" y1="5" x2="14" y2="21" stroke="#CCC" stroke-width="0.3"/>
  <line x1="16" y1="5" x2="16" y2="21" stroke="#CCC" stroke-width="0.3"/>
  <line x1="18" y1="5" x2="18" y2="21" stroke="#CCC" stroke-width="0.3"/>
  <line x1="20" y1="5" x2="20" y2="21" stroke="#CCC" stroke-width="0.3"/>
  <!-- Tuning pegs -->
  <circle cx="13" cy="3" r="0.8" fill="#888"/>
  <circle cx="19" cy="3" r="0.8" fill="#888"/>
</svg>
